<svg width="256" height="256" viewBox="0 0 256 256" fill="none" xmlns="http://www.w3.org/2000/svg">
<g clip-path="url(#clip0_40_15)">
<path d="M152.63 119.523H170.405C190.095 119.523 199.94 110.954 199.94 93.8169C199.94 76.6797 190.095 68.1111 170.405 68.1111H152.63V119.523ZM152.63 231.097H99.0308V162.73H152.63V119.523H99.0308V68.1111H152.63V24.9036H184.352C207.505 24.9036 225.189 30.9198 237.404 42.9523C249.801 54.9848 256 71.9396 256 93.8169C256 115.694 249.801 132.649 237.404 144.681C225.189 156.714 207.505 162.73 184.352 162.73H152.63V231.097Z" fill="#91CD21"/>
<rect x="49.3096" y="119.447" width="49.7214" height="43.3352" fill="#4EB521"/>
<rect x="-0.411865" y="76.1119" width="49.7214" height="43.3352" fill="#76D1BA"/>
<rect x="-0.411865" y="162.782" width="49.7214" height="43.3352" fill="#76D1BA"/>
</g>
<defs>
<clipPath id="clip0_40_15">
<rect width="256" height="256" fill="white"/>
</clipPath>
</defs>
</svg>
